<?xml version="1.0" standalone="no"?>
<!DOCTYPE svg PUBLIC "-//W3C//DTD SVG 20010904//EN"
 "http://www.w3.org/TR/2001/REC-SVG-20010904/DTD/svg10.dtd">
<svg version="1.0" xmlns="http://www.w3.org/2000/svg"
 width="200.000000pt" height="200.000000pt" viewBox="0 0 200.000000 200.000000"
 preserveAspectRatio="xMidYMid meet">
<metadata>
Created by potrace 1.15, written by Peter Selinger 2001-2017
</metadata>
<g transform="translate(0.000000,200.000000) scale(0.100000,-0.100000)"
fill="#000000" stroke="none">
<path d="M773 1875 c-320 -83 -567 -331 -649 -652 -34 -135 -34 -311 0 -446
82 -322 331 -571 653 -653 135 -34 311 -34 446 0 322 82 571 331 653 653 34
135 34 311 0 446 -82 322 -331 571 -653 653 -134 34 -317 33 -450 -1z m423
-65 c246 -63 449 -230 559 -461 102 -217 103 -480 0 -696 -110 -233 -312 -400
-559 -463 -109 -28 -283 -28 -392 0 -301 77 -537 313 -614 614 -28 109 -28
283 0 392 77 299 311 535 610 613 106 28 289 28 396 1z"/>
<path d="M842 1418 c-17 -17 -17 -819 0 -836 17 -17 299 -17 316 0 17 17 17
819 0 836 -8 8 -58 12 -158 12 -100 0 -150 -4 -158 -12z"/>
<path d="M1232 1184 c-22 -15 -22 -17 -22 -299 0 -244 2 -286 16 -299 13 -13
42 -16 158 -16 97 0 146 4 154 12 9 9 12 89 12 299 0 349 16 319 -170 319 -97
0 -131 -3 -148 -16z"/>
<path d="M468 989 c-16 -9 -18 -30 -18 -202 0 -137 3 -196 12 -205 8 -8 57
-12 154 -12 116 0 145 3 158 16 13 13 16 45 16 198 0 164 -2 185 -18 199 -15
14 -42 17 -153 17 -74 0 -142 -5 -151 -11z"/>
</g>
</svg>
