<svg id="svg" version="1.1" width="400" height="283.59375" viewBox="0 0 400 283.59375" xmlns="http://www.w3.org/2000/svg" xmlns:xlink="http://www.w3.org/1999/xlink" ><g id="svgg"><path id="path0" d="M287.518 20.178 C 286.582 20.966,284.927 22.328,283.841 23.205 C 282.755 24.082,281.667 24.997,281.423 25.237 C 281.180 25.477,280.218 26.312,279.286 27.092 C 278.355 27.872,277.453 28.638,277.283 28.794 C 276.311 29.684,271.921 33.662,271.648 33.901 C 267.666 37.382,251.220 53.722,246.082 59.300 C 239.895 66.018,238.373 67.701,234.043 72.612 C 233.028 73.762,232.071 74.843,231.915 75.013 C 231.759 75.184,230.996 76.088,230.219 77.023 C 229.442 77.958,228.727 78.787,228.628 78.865 C 228.417 79.033,225.244 82.783,223.830 84.536 C 223.284 85.213,222.705 85.906,222.544 86.075 C 222.114 86.528,217.609 92.076,214.231 96.312 C 212.614 98.340,211.060 100.274,210.779 100.609 C 210.498 100.944,209.330 102.476,208.183 104.013 C 207.037 105.551,205.959 106.936,205.788 107.092 C 205.081 107.737,192.331 125.363,187.935 131.773 C 187.293 132.709,186.019 134.560,185.105 135.887 C 182.714 139.355,178.156 146.130,178.156 146.215 C 178.156 146.308,173.416 153.526,173.109 153.901 C 172.935 154.112,166.960 163.761,164.236 168.227 C 161.660 172.452,158.582 177.620,158.582 177.721 C 158.582 177.841,155.826 182.544,155.169 183.546 C 155.016 183.780,154.805 184.154,154.700 184.376 C 154.596 184.599,153.703 186.178,152.716 187.887 C 151.730 189.596,150.922 191.044,150.922 191.105 C 150.922 191.167,150.602 191.725,150.210 192.345 C 149.818 192.965,149.101 194.208,148.615 195.105 C 148.130 196.003,147.284 197.567,146.737 198.582 C 146.189 199.596,145.388 201.064,144.957 201.844 C 144.132 203.336,142.704 206.040,139.637 211.915 C 136.897 217.163,129.722 231.464,128.033 235.041 C 127.224 236.754,125.903 239.560,125.097 241.277 C 124.290 242.993,123.069 245.580,122.383 247.026 C 121.696 248.472,121.135 249.719,121.135 249.798 C 121.135 249.876,120.638 250.991,120.030 252.275 C 118.515 255.476,117.163 258.456,117.163 258.594 C 117.163 258.656,116.856 259.382,116.482 260.205 C 116.107 261.028,115.392 262.660,114.893 263.830 C 114.394 265.000,113.890 266.149,113.773 266.383 C 113.657 266.617,112.952 268.277,112.206 270.071 C 111.461 271.865,110.548 273.996,110.178 274.805 C 109.807 275.615,109.499 276.381,109.494 276.507 C 109.489 276.634,109.238 277.248,108.936 277.872 C 108.635 278.496,108.384 279.099,108.378 279.211 C 108.373 279.324,108.065 280.090,107.693 280.914 C 106.547 283.452,106.519 283.688,107.357 283.688 C 107.757 283.688,108.085 283.585,108.085 283.459 C 108.085 283.333,108.628 282.994,109.291 282.707 C 109.954 282.419,111.262 281.836,112.199 281.410 C 113.135 280.985,114.922 280.232,116.170 279.736 C 117.418 279.241,118.695 278.730,119.007 278.601 C 119.319 278.471,120.085 278.173,120.709 277.938 C 122.602 277.225,124.366 276.541,124.965 276.288 C 125.716 275.970,136.524 272.392,138.156 271.921 C 140.992 271.102,142.881 270.566,143.688 270.350 C 145.139 269.962,152.669 268.085,154.610 267.628 C 155.624 267.389,156.901 267.076,157.447 266.933 C 157.993 266.789,159.142 266.539,160.000 266.376 C 160.858 266.213,162.518 265.888,163.688 265.652 C 164.858 265.416,166.704 265.102,167.790 264.953 C 168.875 264.804,169.981 264.613,170.246 264.529 C 170.511 264.444,171.665 264.256,172.811 264.110 C 173.956 263.964,176.362 263.646,178.156 263.403 C 188.071 262.063,207.495 261.401,215.461 262.132 C 217.489 262.318,220.362 262.577,221.844 262.709 C 225.868 263.065,234.127 264.241,234.582 264.522 C 234.733 264.615,235.727 264.813,236.790 264.962 C 237.854 265.111,239.489 265.421,240.426 265.651 C 241.362 265.881,242.957 266.275,243.972 266.526 C 244.986 266.776,246.262 267.088,246.809 267.218 C 247.355 267.348,248.184 267.582,248.652 267.736 C 249.121 267.891,250.206 268.226,251.064 268.481 C 253.739 269.275,255.939 270.003,258.440 270.924 C 259.766 271.412,261.170 271.916,261.560 272.045 C 261.950 272.174,262.908 272.557,263.687 272.897 C 264.467 273.237,265.552 273.707,266.099 273.942 C 268.224 274.854,268.936 275.189,273.191 277.281 C 275.610 278.469,278.227 279.816,279.007 280.273 C 279.787 280.730,281.287 281.585,282.340 282.172 C 283.394 282.759,284.255 283.341,284.255 283.464 C 284.255 283.587,284.494 283.688,284.786 283.688 C 285.582 283.688,285.646 282.323,285.954 258.582 C 286.106 246.879,286.301 236.284,286.389 235.035 C 286.477 233.787,286.675 224.085,286.828 213.475 C 286.982 202.865,287.294 184.035,287.521 171.631 C 287.748 159.227,288.061 141.035,288.216 131.206 C 288.372 121.376,288.629 108.659,288.789 102.947 C 288.948 97.234,289.079 89.128,289.080 84.933 C 289.080 80.737,289.262 70.092,289.484 61.277 C 290.110 36.363,290.176 18.890,289.645 18.811 C 289.411 18.776,288.454 19.391,287.518 20.178 M295.586 63.050 C 295.524 69.722,294.666 104.681,294.173 120.567 C 293.826 131.789,293.451 146.618,293.052 164.965 C 292.899 171.986,292.645 180.475,292.488 183.830 C 292.331 187.184,292.201 192.352,292.200 195.313 C 292.199 198.274,292.067 204.019,291.906 208.079 C 291.746 212.139,291.490 220.759,291.339 227.234 C 291.039 240.091,290.337 267.000,290.035 277.234 L 289.844 283.688 293.149 283.688 L 296.454 283.688 296.454 172.482 C 296.454 73.822,296.406 61.277,296.028 61.277 C 295.697 61.277,295.599 61.670,295.586 63.050 " stroke="none" fill="#444444" fill-rule="evenodd"></path><path id="path1" d="M0.000 141.844 L 0.000 283.688 53.314 283.688 L 106.628 283.688 106.823 283.050 C 106.930 282.699,107.321 281.737,107.693 280.914 C 108.065 280.090,108.373 279.324,108.378 279.211 C 108.384 279.099,108.635 278.496,108.936 277.872 C 109.238 277.248,109.489 276.634,109.494 276.507 C 109.499 276.381,109.807 275.615,110.178 274.805 C 110.548 273.996,111.461 271.865,112.206 270.071 C 112.952 268.277,113.657 266.617,113.773 266.383 C 113.890 266.149,114.394 265.000,114.893 263.830 C 115.392 262.660,116.107 261.028,116.482 260.205 C 116.856 259.382,117.163 258.656,117.163 258.594 C 117.163 258.456,118.515 255.476,120.030 252.275 C 120.638 250.991,121.135 249.878,121.135 249.802 C 121.135 249.726,121.786 248.288,122.582 246.605 C 123.378 244.923,124.569 242.397,125.229 240.993 C 128.777 233.442,129.850 231.238,133.645 223.694 C 135.922 219.166,138.619 213.865,139.637 211.915 C 142.704 206.040,144.132 203.336,144.957 201.844 C 145.388 201.064,146.189 199.596,146.737 198.582 C 147.284 197.567,148.130 196.003,148.615 195.105 C 149.101 194.208,149.818 192.965,150.210 192.345 C 150.602 191.725,150.922 191.167,150.922 191.105 C 150.922 190.980,154.445 184.778,154.894 184.113 C 155.052 183.879,155.268 183.496,155.375 183.262 C 155.481 183.028,156.246 181.715,157.075 180.345 C 157.904 178.974,158.582 177.793,158.582 177.721 C 158.582 177.620,161.660 172.452,164.236 168.227 C 166.960 163.761,172.935 154.112,173.109 153.901 C 173.416 153.526,178.156 146.308,178.156 146.215 C 178.156 146.130,182.714 139.355,185.105 135.887 C 186.019 134.560,187.293 132.709,187.935 131.773 C 192.331 125.363,205.081 107.737,205.788 107.092 C 205.959 106.936,207.037 105.551,208.183 104.013 C 209.330 102.476,210.498 100.944,210.779 100.609 C 211.060 100.274,212.614 98.340,214.231 96.312 C 217.609 92.076,222.114 86.528,222.544 86.075 C 222.705 85.906,223.284 85.213,223.830 84.536 C 225.244 82.783,228.417 79.033,228.628 78.865 C 228.727 78.787,229.442 77.958,230.219 77.023 C 230.996 76.088,231.759 75.184,231.915 75.013 C 232.071 74.843,233.028 73.762,234.043 72.612 C 238.373 67.701,239.895 66.018,246.082 59.300 C 251.220 53.722,267.666 37.382,271.648 33.901 C 271.921 33.662,276.311 29.684,277.283 28.794 C 277.453 28.638,278.358 27.875,279.293 27.099 C 280.228 26.322,281.063 25.590,281.148 25.473 C 281.233 25.355,282.138 24.587,283.159 23.764 C 284.180 22.942,285.998 21.460,287.199 20.470 C 288.482 19.412,289.550 18.735,289.789 18.827 C 290.272 19.012,290.172 32.855,289.488 60.862 C 289.262 70.073,289.078 80.974,289.078 85.085 C 289.078 89.197,288.948 97.234,288.789 102.947 C 288.629 108.659,288.372 121.376,288.216 131.206 C 288.061 141.035,287.748 159.227,287.521 171.631 C 287.294 184.035,286.982 202.865,286.828 213.475 C 286.675 224.085,286.477 233.787,286.389 235.035 C 286.301 236.284,286.106 246.879,285.954 258.582 C 285.802 270.284,285.596 280.720,285.497 281.773 L 285.317 283.688 287.580 283.688 L 289.844 283.688 290.035 277.234 C 290.337 267.000,291.039 240.091,291.339 227.234 C 291.490 220.759,291.746 212.139,291.906 208.079 C 292.067 204.019,292.199 198.274,292.200 195.313 C 292.201 192.352,292.331 187.184,292.488 183.830 C 292.645 180.475,292.899 171.986,293.052 164.965 C 293.451 146.618,293.826 131.789,294.173 120.567 C 294.666 104.681,295.524 69.722,295.586 63.050 C 295.599 61.670,295.697 61.277,296.028 61.277 C 296.406 61.277,296.454 73.822,296.454 172.482 L 296.454 283.688 348.227 283.688 L 400.000 283.688 400.000 141.844 L 400.000 0.000 200.000 0.000 L 0.000 0.000 0.000 141.844 M192.624 262.014 C 192.390 262.072,189.709 262.317,186.667 262.558 C 183.624 262.800,179.730 263.188,178.014 263.420 C 176.298 263.652,173.956 263.962,172.811 264.109 C 171.665 264.255,170.511 264.444,170.246 264.529 C 169.981 264.613,168.875 264.804,167.790 264.953 C 166.704 265.102,164.858 265.416,163.688 265.652 C 162.518 265.888,160.858 266.213,160.000 266.376 C 159.142 266.539,157.993 266.789,157.447 266.933 C 156.901 267.076,155.624 267.389,154.610 267.628 C 148.521 269.063,143.400 270.397,138.298 271.878 C 136.536 272.389,125.739 275.960,124.965 276.288 C 124.652 276.420,123.887 276.720,123.262 276.955 C 121.530 277.608,119.638 278.340,119.007 278.601 C 118.695 278.730,117.418 279.241,116.170 279.736 C 114.922 280.232,113.135 280.985,112.199 281.410 C 111.262 281.836,109.954 282.419,109.291 282.707 C 108.628 282.994,108.085 283.333,108.085 283.459 C 108.085 283.585,147.723 283.688,196.170 283.688 C 244.617 283.688,284.255 283.587,284.255 283.464 C 284.255 283.341,283.394 282.759,282.340 282.172 C 281.287 281.585,279.787 280.730,279.007 280.273 C 278.227 279.816,275.610 278.469,273.191 277.281 C 268.936 275.189,268.224 274.854,266.099 273.942 C 265.552 273.707,264.467 273.237,263.687 272.897 C 262.908 272.557,261.950 272.174,261.560 272.045 C 261.170 271.916,259.766 271.412,258.440 270.924 C 255.939 270.003,253.739 269.275,251.064 268.481 C 250.206 268.226,249.121 267.891,248.652 267.736 C 248.184 267.582,247.355 267.348,246.809 267.218 C 246.262 267.088,245.050 266.790,244.113 266.555 C 239.845 265.486,238.596 265.215,236.790 264.962 C 235.727 264.813,234.733 264.615,234.582 264.522 C 234.116 264.234,225.837 263.063,221.702 262.701 C 220.142 262.564,217.461 262.315,215.745 262.148 C 212.925 261.874,193.651 261.762,192.624 262.014 " stroke="none" fill="#fafafa" fill-rule="evenodd"></path></g></svg>