<?xml version="1.0" standalone="no"?>
<!DOCTYPE svg PUBLIC "-//W3C//DTD SVG 20010904//EN"
 "http://www.w3.org/TR/2001/REC-SVG-20010904/DTD/svg10.dtd">
<svg version="1.0" xmlns="http://www.w3.org/2000/svg"
 width="216.000000pt" height="209.000000pt" viewBox="0 0 216.000000 209.000000"
 preserveAspectRatio="xMidYMid meet">
<metadata>
Created by potrace 1.15, written by Peter Selinger 2001-2017
</metadata>
<g transform="translate(0.000000,209.000000) scale(0.100000,-0.100000)"
fill="#000000" stroke="none">
<path d="M860 1851 c0 -14 -8 -21 -28 -23 -27 -3 -28 -5 -20 -35 6 -23 14 -33
28 -33 16 0 20 -7 20 -30 0 -36 -1 -37 -113 -45 -77 -6 -88 -9 -81 -23 33 -80
24 -180 -26 -309 -15 -40 -25 -73 -23 -73 3 0 20 9 37 19 37 23 147 61 176 61
15 0 20 -7 20 -29 0 -45 -20 -57 -107 -65 -43 -3 -97 -9 -120 -12 l-43 -6 45
-51 c108 -123 159 -315 132 -494 l-8 -53 41 0 41 0 -7 -62 c-4 -35 -8 -65 -10
-67 -3 -3 -147 14 -211 25 -29 5 -33 10 -39 49 -3 24 -4 48 -3 54 2 5 46 -8
97 -29 61 -26 92 -35 89 -26 -9 24 -487 961 -487 956 0 -3 16 -52 35 -110 63
-186 108 -471 90 -566 -7 -38 -7 -37 -94 132 -80 155 -163 297 -145 249 4 -11
9 -76 12 -144 4 -123 -8 -255 -33 -349 l-12 -49 56 1 c31 0 68 -3 83 -7 24 -6
28 -13 28 -44 l0 -36 -45 7 -46 6 7 -35 6 -35 -46 0 c-44 0 -46 -1 -46 -30 0
-25 4 -30 24 -30 17 0 27 -9 36 -31 9 -20 22 -32 41 -36 16 -3 33 -11 38 -17
7 -9 61 -248 61 -273 0 -2 281 -3 624 -3 l623 0 28 22 c46 36 55 72 39 153
-16 85 -17 140 -4 166 6 10 46 37 90 59 58 29 79 45 82 61 2 19 22 29 118 61
146 48 144 47 137 54 -3 3 -63 -13 -134 -35 -115 -36 -376 -81 -390 -68 -2 3
-7 46 -10 96 l-6 91 40 0 c22 0 75 -9 118 -20 89 -23 86 -24 110 54 29 96 14
209 -41 318 l-24 48 -105 -7 -105 -6 0 76 c0 75 1 77 24 77 13 0 32 -3 41 -6
14 -6 14 -9 -6 -30 -25 -26 -18 -44 17 -44 14 0 35 -6 47 -14 12 -8 56 -17 97
-20 62 -4 68 -4 35 4 -22 6 -57 13 -77 16 -21 4 -43 13 -49 20 -6 8 -20 14
-30 14 -18 0 -18 2 -4 24 24 36 10 55 -48 62 -29 4 -54 6 -57 6 -2 -1 -3 -42
-1 -91 2 -71 0 -89 -12 -94 -9 -3 -54 -7 -102 -8 l-87 -2 -30 56 c-17 31 -36
58 -43 61 -12 4 -117 -3 -277 -19 l-58 -6 0 46 0 45 88 0 c48 0 118 -7 156
-15 38 -8 72 -12 75 -9 13 13 2 153 -17 211 -26 82 -79 165 -101 159 -9 -3
-58 -8 -108 -11 l-93 -7 0 31 c0 24 4 31 19 31 15 0 41 41 41 66 0 2 -13 4
-30 4 -23 0 -30 4 -30 20 0 11 -4 20 -10 20 -5 0 -10 -9 -10 -19z m458 -1001
c-4 -51 -2 -58 11 -51 25 13 139 23 145 13 3 -5 3 -52 -1 -105 l-6 -95 -66 -7
c-36 -3 -81 -9 -100 -12 -29 -5 -33 -3 -28 11 4 9 11 67 17 129 16 162 22 204
27 189 3 -8 3 -40 1 -72z m-778 -237 c0 -50 -1 -53 -26 -53 -17 0 -28 7 -31
18 -3 14 -22 21 -84 30 -44 6 -84 14 -89 17 -12 8 -13 65 -2 65 5 0 35 -9 67
-20 74 -25 78 -25 71 4 l-6 24 50 -16 50 -16 0 -53z m500 26 c47 -5 117 -17
155 -26 63 -15 67 -17 43 -25 -21 -7 -29 -18 -37 -56 -22 -104 -20 -102 -114
-102 -46 0 -112 3 -146 6 l-61 7 0 103 0 104 38 0 c21 0 76 -5 122 -11z"/>
</g>
</svg>
